<svg width="20" height="21" viewBox="0 0 20 21" fill="none" xmlns="http://www.w3.org/2000/svg">
<path d="M2.5 5.28516H4.16667H17.5" stroke="#686D7B" stroke-linecap="round" stroke-linejoin="round"/>
<path d="M15.8327 5.28646V16.9531C15.8327 17.3952 15.6571 17.8191 15.3445 18.1316C15.032 18.4442 14.608 18.6198 14.166 18.6198H5.83268C5.39065 18.6198 4.96673 18.4442 4.65417 18.1316C4.34161 17.8191 4.16602 17.3952 4.16602 16.9531V5.28646M6.66602 5.28646V3.61979C6.66602 3.17776 6.84161 2.75384 7.15417 2.44128C7.46673 2.12872 7.89065 1.95313 8.33268 1.95312H11.666C12.108 1.95313 12.532 2.12872 12.8445 2.44128C13.1571 2.75384 13.3327 3.17776 13.3327 3.61979V5.28646" stroke="#686D7B" stroke-linecap="round" stroke-linejoin="round"/>
<path d="M8.33398 9.45312V14.4531" stroke="#686D7B" stroke-linecap="round" stroke-linejoin="round"/>
<path d="M11.666 9.45312V14.4531" stroke="#686D7B" stroke-linecap="round" stroke-linejoin="round"/>
</svg>
